<svg xmlns="http://www.w3.org/2000/svg" viewBox="0 0 128 128">
  <g transform="translate(0,0)">
    <path d="M88.278 28.679C85.098 28.679 82.091 30.123 80.111 32.6L64.785 51.781L57.97 32.088C57.226 30.065 55.306 28.709 53.142 28.679H18C16.505 28.659 16.155 30.749 17.576 31.212L47.692 41.026L14.344 82.116C12.966 83.815 14.18 86.345 16.374 86.345H42.658C45.839 86.345 48.846 84.901 50.826 82.424L66.152 63.243L72.966 82.936C73.71 84.959 75.631 86.315 77.794 86.345H112.936C114.431 86.363 114.781 84.272 113.361 83.809L83.244 73.996L116.592 32.905C117.97 31.206 116.756 28.676 114.562 28.676H88.278Z" fill="currentColor"/>
  </g>
</svg>
